# xmcd
#
# Track frame offsets: 
#        150
#        17620
#        33012
#        46333
#        61400
#        82209
#        99793
#        115177
#        137075
#        153050
#
# Disc length: 2349 seconds
#
# Revision: 0
# Processed by: cddbd v1.5.2PL0 Copyright (c) Steve Scherf et al.
# Submitted via: ExactAudioCopy v0.95b4
#
DISCID=6f092b0a
DTITLE=Brannon Dreibrodt - This Time Around
DYEAR=2007
DGENRE=Country
TTITLE0=Whole
TTITLE1=When All Else Fails
TTITLE2=Now
TTITLE3=Over
TTITLE4=This Time
TTITLE5=You
TTITLE6=But I Do
TTITLE7=Small Town Girl
TTITLE8=Random Beach Song
TTITLE9=In Love
EXTD=
EXTT0=
EXTT1=
EXTT2=
EXTT3=
EXTT4=
EXTT5=
EXTT6=
EXTT7=
EXTT8=
EXTT9=
PLAYORDER=
